<svg xmlns="http://www.w3.org/2000/svg" viewBox="0 0 32 32" width="32" height="32">
  <defs>
    <linearGradient id="grad1" x1="0%" y1="0%" x2="100%" y2="100%">
      <stop offset="0%" style="stop-color:#3498db;stop-opacity:1" />
      <stop offset="100%" style="stop-color:#9b59b6;stop-opacity:1" />
    </linearGradient>
  </defs>
  
  <!-- Background circle -->
  <circle cx="16" cy="16" r="15" fill="url(#grad1)" stroke="#2c3e50" stroke-width="1"/>
  
  <!-- Brain outline -->
  <path d="M8 12 Q8 8 12 8 Q16 8 20 8 Q24 8 24 12 Q24 16 20 16 Q16 16 12 16 Q8 16 8 12 Z" 
        fill="none" stroke="#ecf0f1" stroke-width="1.5" stroke-linecap="round"/>
  
  <!-- Circuit lines -->
  <path d="M6 10 L10 10 M22 10 L26 10 M6 14 L10 14 M22 14 L26 14" 
        stroke="#ecf0f1" stroke-width="1" stroke-linecap="round"/>
  
  <!-- Data points -->
  <circle cx="10" cy="10" r="1" fill="#ecf0f1"/>
  <circle cx="22" cy="10" r="1" fill="#ecf0f1"/>
  <circle cx="10" cy="14" r="1" fill="#ecf0f1"/>
  <circle cx="22" cy="14" r="1" fill="#ecf0f1"/>
  
  <!-- Central node -->
  <circle cx="16" cy="12" r="2" fill="#ecf0f1"/>
  
  <!-- Connection lines -->
  <path d="M10 10 L16 12 M22 10 L16 12 M10 14 L16 12 M22 14 L16 12" 
        stroke="#ecf0f1" stroke-width="0.8" stroke-linecap="round"/>
</svg> 